<svg width="20" height="20" viewBox="0 0 20 20" fill="none" xmlns="http://www.w3.org/2000/svg">
<path d="M3.71094 20C1.66144 20 -7.2624e-08 18.3386 -1.6221e-07 16.2891L-7.12018e-07 3.71094C-8.01604e-07 1.66144 1.66144 -7.2624e-08 3.71094 -1.6221e-07L16.2891 -7.12018e-07C18.3386 -8.01604e-07 20 1.66144 20 3.71094L20 16.2891C20 18.3386 18.3386 20 16.2891 20L3.71094 20Z" fill="white"/>
<path d="M10.6093 13.7339C10.2965 14.1232 9.70383 14.1232 9.3911 13.7339L5.60808 9.02436C5.19738 8.51308 5.56135 7.75386 6.21716 7.75386L13.7832 7.75386C14.439 7.75386 14.803 8.51308 14.3923 9.02436L10.6093 13.7339Z" fill="#189AE5"/>
</svg>
